<svg width="24" height="25" fill="none" xmlns="http://www.w3.org/2000/svg"><path d="M12 2.5c5.523 0 10 4.478 10 10s-4.477 10-10 10-10-4.478-10-10 4.477-10 10-10zm0 1.667c-4.595 0-8.333 3.738-8.333 8.333 0 4.595 3.738 8.333 8.333 8.333 4.595 0 8.333-3.738 8.333-8.333 0-4.595-3.738-8.333-8.333-8.333zM12 16a1 1 0 110 2 1 1 0 010-2zm0-8.75A2.75 2.75 0 0114.75 10c0 1.01-.297 1.574-1.051 2.359l-.169.171c-.622.622-.78.886-.78 1.47a.75.75 0 01-1.5 0c0-1.01.297-1.574 1.051-2.359l.169-.171c.622-.622.78-.886.78-1.47a1.25 1.25 0 00-2.493-.128L10.75 10a.75.75 0 01-1.5 0A2.75 2.75 0 0112 7.25z" fill="url(#paint0_linear_547_3481)"/><defs><linearGradient id="paint0_linear_547_3481" x1="15.982" y1="22.5" x2="-3.107" y2="14.085" gradientUnits="userSpaceOnUse"><stop stop-color="#317BCE"/><stop offset="1" stop-color="#5ACBEF"/></linearGradient></defs></svg>