<svg width="19" height="19" fill="none" xmlns="http://www.w3.org/2000/svg"><path d="M9.502 0h-.004C4.26 0 0 4.26 0 9.5a9.43 9.43 0 001.809 5.568l-1.184 3.53 3.651-1.168A9.417 9.417 0 009.502 19C14.74 19 19 14.738 19 9.5S14.74 0 9.502 0zm5.528 13.415c-.229.647-1.139 1.184-1.864 1.34-.497.107-1.145.19-3.328-.714-2.791-1.157-4.59-3.994-4.73-4.178-.134-.184-1.127-1.502-1.127-2.865 0-1.363.692-2.027.97-2.312.23-.234.609-.34.972-.34.118 0 .223.005.319.01.279.012.419.028.603.469.229.552.787 1.915.854 2.055.067.14.135.33.04.515-.09.19-.167.274-.308.435-.14.162-.273.285-.413.459-.128.15-.273.312-.111.591.161.273.72 1.184 1.54 1.916 1.061.944 1.921 1.245 2.229 1.373.229.095.502.073.67-.105.212-.23.474-.61.742-.983.19-.269.43-.302.681-.207.257.089 1.614.76 1.893.899.28.14.463.207.53.324.067.118.067.67-.162 1.318z" fill="#0075FF"/></svg>