<svg width="190" height="240" viewBox="0 0 190 240" fill="none" xmlns="http://www.w3.org/2000/svg">
<circle cx="160" cy="119" r="160" fill="#0075FF"/>
<mask id="mask0_686_4326" style="mask-type:alpha" maskUnits="userSpaceOnUse" x="0" y="-41" width="320" height="320">
<g style="mix-blend-mode:soft-light">
<circle cx="160" cy="119" r="160" fill="white"/>
</g>
</mask>
<g mask="url(#mask0_686_4326)">
<path d="M163 213V210H166V213H163Z" fill="white"/>
<path d="M151 234V231H154V234H151Z" fill="white"/>
<path d="M154 240V237H157V240H154Z" fill="white"/>
<path d="M157 225V222H160V225H157Z" fill="white"/>
<path d="M157 219V216H160V219H157Z" fill="white"/>
<path d="M157 231V228H160V231H157Z" fill="white"/>
<path d="M169 219V216H172V219H169Z" fill="white"/>
<path d="M169 159V156H172V159H169Z" fill="white"/>
<path d="M169 201V198H172V201H169Z" fill="white"/>
<path d="M169 141V138H172V141H169Z" fill="white"/>
<path d="M157 213V210H160V213H157Z" fill="white"/>
<path d="M139 228V225H142V228H139Z" fill="white"/>
<path d="M145 240V237H148V240H145Z" fill="white"/>
<path d="M160 240V237H163V240H160Z" fill="white"/>
<path d="M160 222V219L163 219V222L160 222Z" fill="white"/>
<path d="M172 216L172 213H175V216L172 216Z" fill="white"/>
<path d="M148 225V222H151V225H148Z" fill="white"/>
<path d="M148 216V213H151V216H148Z" fill="white"/>
<path d="M130 240V237H133V240H130Z" fill="white"/>
<path d="M126.52 219V216H129.52V219H126.52Z" fill="white"/>
<path d="M101.5 213V210H104.5V213H101.5Z" fill="white"/>
<path d="M80.5 205.5V202.5H83.5V205.5H80.5Z" fill="white"/>
<path d="M93 231V228H96V231H93Z" fill="white"/>
<path d="M80.5 240V237H83.5V240H80.5Z" fill="white"/>
<path d="M73.2 222V219H76.2V222H73.2Z" fill="white"/>
<path d="M89.5 193.5V190.5H92.5V193.5H89.5Z" fill="white"/>
<path d="M70 186V183H73V186H70Z" fill="white"/>
<path d="M110.6 193.5V190.5H113.6V193.5H110.6Z" fill="white"/>
<path d="M98.5 183V180H101.5V183H98.5Z" fill="white"/>
<path d="M113.6 222V219H116.6V222H113.6Z" fill="white"/>
<path d="M130 228V225H133V228H130Z" fill="white"/>
<path d="M154 222V219L157 219V222L154 222Z" fill="white"/>
<path d="M136 237V234H139V237H136Z" fill="white"/>
<path d="M136 222V219H139V222H136Z" fill="white"/>
<path d="M166 234V231H169V234H166Z" fill="white"/>
<path d="M166 216V213L169 213V216L166 216Z" fill="white"/>
<path d="M142 234V231H145V234H142Z" fill="white"/>
<path d="M121 234V231H124V234H121Z" fill="white"/>
<path d="M142 219V216H145V219H142Z" fill="white"/>
<path d="M163 183V180H166V183H163Z" fill="white"/>
<path d="M151 204V201H154V204H151Z" fill="white"/>
<path d="M157 195V192H160V195H157Z" fill="white"/>
<path d="M157 189V186H160V189H157Z" fill="white"/>
<path d="M157 201V198H160V201H157Z" fill="white"/>
<path d="M157 183V180H160V183H157Z" fill="white"/>
<path d="M139 198V195H142V198H139Z" fill="white"/>
<path d="M145 210V207H148V210H145Z" fill="white"/>
<path d="M160 210V207H163V210H160Z" fill="white"/>
<path d="M160 192V189L163 189V192H160Z" fill="white"/>
<path d="M172 210V207H175V210H172Z" fill="white"/>
<path d="M172 186V183H175V186H172Z" fill="white"/>
<path d="M169 189V186L172 186L172 189H169Z" fill="white"/>
<path d="M148 195V192H151V195H148Z" fill="white"/>
<path d="M148 186V183H151V186H148Z" fill="white"/>
<path d="M130 210V207H133V210H130Z" fill="white"/>
<path d="M130 189V186H133V189H130Z" fill="white"/>
<path d="M126.52 198V195H129.52V198H126.52Z" fill="white"/>
<path d="M154 192V189L157 189V192H154Z" fill="white"/>
<path d="M136 207V204H139V207H136Z" fill="white"/>
<path d="M136 192V189H139V192H136Z" fill="white"/>
<path d="M166 207V204H169V207H166Z" fill="white"/>
<path d="M166 186V183L169 183V186L166 186Z" fill="white"/>
<path d="M142 204V201H145V204H142Z" fill="white"/>
<path d="M121 204V201H124V204H121Z" fill="white"/>
<path d="M142 189V186H145V189H142Z" fill="white"/>
<path d="M121 186V183H124V186H121Z" fill="white"/>
<path d="M163 153V150H166V153H163Z" fill="white"/>
<path d="M151 174V171H154V174H151Z" fill="white"/>
<path d="M157 165V162H160V165H157Z" fill="white"/>
<path d="M157 159V156H160V159H157Z" fill="white"/>
<path d="M157 171V168H160V171H157Z" fill="white"/>
<path d="M157 153V150H160V153H157Z" fill="white"/>
<path d="M139 168V165H142V168H139Z" fill="white"/>
<path d="M145 180V177H148V180H145Z" fill="white"/>
<path d="M160 180V177H163V180H160Z" fill="white"/>
<path d="M160 162V159L163 159V162H160Z" fill="white"/>
<path d="M172 156L172 153H175V156H172Z" fill="white"/>
<path d="M148 165V162H151V165H148Z" fill="white"/>
<path d="M148 156V153H151V156H148Z" fill="white"/>
<path d="M130 180V177H133V180H130Z" fill="white"/>
<path d="M126.52 159V156H129.52V159H126.52Z" fill="white"/>
<path d="M101.5 153V150H104.5V153H101.5Z" fill="white"/>
<path d="M80.5 145.5V142.5H83.5V145.5H80.5Z" fill="white"/>
<path d="M93 171V168H96V171H93Z" fill="white"/>
<path d="M80.5 180V177H83.5V180H80.5Z" fill="white"/>
<path d="M73.2 162V159H76.2V162H73.2Z" fill="white"/>
<path d="M89.5 133.5V130.5H92.5V133.5H89.5Z" fill="white"/>
<path d="M70 126L70 123H73V126H70Z" fill="white"/>
<path d="M110.6 133.5V130.5H113.6V133.5H110.6Z" fill="white"/>
<path d="M98.5 123V120H101.5V123H98.5Z" fill="white"/>
<path d="M113.6 162V159H116.6V162H113.6Z" fill="white"/>
<path d="M130 168V165H133V168H130Z" fill="white"/>
<path d="M154 162V159L157 159V162H154Z" fill="white"/>
<path d="M136 177V174H139V177H136Z" fill="white"/>
<path d="M136 162V159H139V162H136Z" fill="white"/>
<path d="M166 156V153L169 153V156H166Z" fill="white"/>
<path d="M142 174V171H145V174H142Z" fill="white"/>
<path d="M121 174V171H124V174H121Z" fill="white"/>
<path d="M142 159V156H145V159H142Z" fill="white"/>
<path d="M163 123V120H166V123H163Z" fill="white"/>
<path d="M151 144V141H154V144H151Z" fill="white"/>
<path d="M157 135V132H160V135H157Z" fill="white"/>
<path d="M157 129V126H160V129H157Z" fill="white"/>
<path d="M157 141V138H160V141H157Z" fill="white"/>
<path d="M157 123V120H160V123H157Z" fill="white"/>
<path d="M139 138V135H142V138H139Z" fill="white"/>
<path d="M145 150V147H148V150H145Z" fill="white"/>
<path d="M160 150V147H163V150H160Z" fill="white"/>
<path d="M160 132V129L163 129V132H160Z" fill="white"/>
<path d="M172 150V147H175V150H172Z" fill="white"/>
<path d="M172 126V123H175V126H172Z" fill="white"/>
<path d="M148 135V132H151V135H148Z" fill="white"/>
<path d="M148 126V123H151V126H148Z" fill="white"/>
<path d="M130 150V147H133V150H130Z" fill="white"/>
<path d="M130 129V126H133V129H130Z" fill="white"/>
<path d="M130 138V135H133V138H130Z" fill="white"/>
<path fill-rule="evenodd" clip-rule="evenodd" d="M172 231V234H175V237H178V240H184V237H187V240H190V234H187V231H190V222H187V219H190V216H187V213H190V204H187V201H190V192H187V189H190V186H187V183H190V174H187V171H190V162H187V159H190V156H187V153H190V144H187V141H190V132H187V129H190V126H187V123H190V120H187V123L184 123V120H181V123L178 123V120H175V123L178 123V126H175V129H172V132H175V135H178V138H175V141H172L172 144H175V147H178V150H175V153L178 153V156H175V159L172 159L172 162H175V165H178V168H175V171L172 171V174L175 174V177H178V180H175V183L178 183V186L175 186V189L172 189L172 192H175V195H178V198H175V201L172 201L172 204L175 204V207H178V210H175V213L178 213V216L175 216V219L172 219L172 222L175 222V225H178V228H175V231H172ZM178 228H181V231H178V228ZM178 225V222H181V225H178ZM178 213L181 213V210H178V213ZM178 198H181V201H178V198ZM178 195V192H181V195H178ZM178 183H181V180H178V183ZM178 168H181V171H178V168ZM178 165V162H181V165H178ZM178 153L181 153V150H178V153ZM178 138H181V141H178V138ZM178 135V132H181V135H178ZM187 132V138H184V132H187ZM184 147H187V153L184 153V147ZM184 147H181V144H184V147ZM187 162V168H184V162H187ZM184 177H187V183H184V177ZM184 177H181V174H184V177ZM187 192V198H184V192H187ZM184 207H187V213L184 213V207ZM184 207H181V204H184V207ZM187 222V228H184V222H187ZM184 237H181V234H184V237ZM181 126V129H184V126H181ZM181 156V159H184V156H181ZM181 186V189H184V186H181ZM181 216V219H184V216H181Z" fill="white"/>
<path d="M154 132V129L157 129V132H154Z" fill="white"/>
<path d="M136 147V144H139V147H136Z" fill="white"/>
<path d="M136 132V129H139V132H136Z" fill="white"/>
<path d="M166 147V144H169V147H166Z" fill="white"/>
<path d="M166 126V123L169 123V126H166Z" fill="white"/>
<path d="M169 129V126H172V129L169 129Z" fill="white"/>
<path d="M169 123V120H172L172 123H169Z" fill="white"/>
<path d="M163 231V228H166V231L163 231Z" fill="white"/>
<path d="M166 222V219L169 219V222H166Z" fill="white"/>
<path d="M166 225V228L169 228V225H166Z" fill="white"/>
<path d="M172 228V225H175V228H172Z" fill="white"/>
<path d="M163 204L166 204V198L169 198V195H172V192H169V195H166V198H163V204Z" fill="white"/>
<path d="M163 174H166V168H163V174Z" fill="white"/>
<path d="M169 168V171L172 171V168L175 168V165H172V168H169Z" fill="white"/>
<path d="M166 165V162H169V165H166Z" fill="white"/>
<path d="M163 159V156H166V159L163 159Z" fill="white"/>
<path d="M166 129V132H169V135H166V138H163V144H166V138H169V135H172V132H169V129L166 129Z" fill="white"/>
<path d="M142 144V141H145V144H142Z" fill="white"/>
<path d="M121 144V141H124V144H121Z" fill="white"/>
<path d="M142 129V126H145V129H142Z" fill="white"/>
<path d="M121 126V123H124V126H121Z" fill="white"/>
<path d="M169 237V240H175V237H169Z" fill="white"/>
<path d="M169 177V183H172L172 180L175 180V177H169Z" fill="white"/>
<path d="M163 93V90H166V93H163Z" fill="white"/>
<path d="M151 114V111H154V114H151Z" fill="white"/>
<path d="M154 120V117H157V120H154Z" fill="white"/>
<path d="M157 105V102H160V105H157Z" fill="white"/>
<path d="M157 99V96H160V99H157Z" fill="white"/>
<path d="M157 111V108H160V111H157Z" fill="white"/>
<path d="M169 99V96H172V99H169Z" fill="white"/>
<path d="M169 39V36H172V39H169Z" fill="white"/>
<path d="M169 81V78H172V81H169Z" fill="white"/>
<path d="M169 21V18H172V21H169Z" fill="white"/>
<path d="M157 93V90H160V93H157Z" fill="white"/>
<path d="M139 108V105H142V108H139Z" fill="white"/>
<path d="M145 120V117H148V120H145Z" fill="white"/>
<path d="M160 120V117H163V120H160Z" fill="white"/>
<path d="M160 102V99L163 99V102L160 102Z" fill="white"/>
<path d="M172 96L172 93H175V96L172 96Z" fill="white"/>
<path d="M148 105V102H151V105H148Z" fill="white"/>
<path d="M148 96V93H151V96H148Z" fill="white"/>
<path d="M130 120V117H133V120H130Z" fill="white"/>
<path d="M126.52 99V96H129.52V99H126.52Z" fill="white"/>
<path d="M101.5 93V90H104.5V93H101.5Z" fill="white"/>
<path d="M80.5 85.5V82.5H83.5V85.5H80.5Z" fill="white"/>
<path d="M93 111V108H96V111H93Z" fill="white"/>
<path d="M80.5 120V117H83.5V120H80.5Z" fill="white"/>
<path d="M73.2 102V99H76.2V102H73.2Z" fill="white"/>
<path d="M89.5 73.5V70.5H92.5V73.5H89.5Z" fill="white"/>
<path d="M70 66V63H73V66H70Z" fill="white"/>
<path d="M110.6 73.5V70.5H113.6V73.5H110.6Z" fill="white"/>
<path d="M98.5 63V60H101.5V63H98.5Z" fill="white"/>
<path d="M113.6 102V99H116.6V102H113.6Z" fill="white"/>
<path d="M130 108V105H133V108H130Z" fill="white"/>
<path d="M154 102V99L157 99V102L154 102Z" fill="white"/>
<path d="M136 117V114H139V117H136Z" fill="white"/>
<path d="M136 102V99H139V102H136Z" fill="white"/>
<path d="M166 114V111H169V114H166Z" fill="white"/>
<path d="M166 96V93L169 93V96L166 96Z" fill="white"/>
<path d="M142 114V111H145V114H142Z" fill="white"/>
<path d="M121 114V111H124V114H121Z" fill="white"/>
<path d="M142 99V96H145V99H142Z" fill="white"/>
<path d="M163 63V60H166V63H163Z" fill="white"/>
<path d="M151 84V81H154V84H151Z" fill="white"/>
<path d="M157 75V72H160V75H157Z" fill="white"/>
<path d="M157 69V66H160V69H157Z" fill="white"/>
<path d="M157 81V78H160V81H157Z" fill="white"/>
<path d="M157 63V60H160V63H157Z" fill="white"/>
<path d="M139 78V75H142V78H139Z" fill="white"/>
<path d="M145 90V87H148V90H145Z" fill="white"/>
<path d="M160 90V87H163V90H160Z" fill="white"/>
<path d="M160 72V69L163 69V72H160Z" fill="white"/>
<path d="M172 90V87H175V90H172Z" fill="white"/>
<path d="M172 66V63H175V66H172Z" fill="white"/>
<path d="M169 69V66L172 66L172 69H169Z" fill="white"/>
<path d="M148 75V72H151V75H148Z" fill="white"/>
<path d="M148 66V63H151V66H148Z" fill="white"/>
<path d="M130 90V87H133V90H130Z" fill="white"/>
<path d="M130 69V66H133V69H130Z" fill="white"/>
<path d="M126.52 78V75H129.52V78H126.52Z" fill="white"/>
<path d="M154 72V69L157 69V72H154Z" fill="white"/>
<path d="M136 87V84H139V87H136Z" fill="white"/>
<path d="M136 72V69H139V72H136Z" fill="white"/>
<path d="M166 87V84H169V87H166Z" fill="white"/>
<path d="M166 66V63L169 63V66L166 66Z" fill="white"/>
<path d="M142 84V81H145V84H142Z" fill="white"/>
<path d="M121 84V81H124V84H121Z" fill="white"/>
<path d="M142 69V66H145V69H142Z" fill="white"/>
<path d="M121 66V63H124V66H121Z" fill="white"/>
<path d="M163 33V30H166V33H163Z" fill="white"/>
<path d="M151 54V51H154V54H151Z" fill="white"/>
<path d="M157 45V42H160V45H157Z" fill="white"/>
<path d="M157 39V36H160V39H157Z" fill="white"/>
<path d="M157 51V48H160V51H157Z" fill="white"/>
<path d="M157 33V30H160V33H157Z" fill="white"/>
<path d="M139 48V45H142V48H139Z" fill="white"/>
<path d="M145 60V57H148V60H145Z" fill="white"/>
<path d="M160 60V57H163V60H160Z" fill="white"/>
<path d="M160 42V39L163 39V42H160Z" fill="white"/>
<path d="M172 36L172 33H175V36H172Z" fill="white"/>
<path d="M148 45V42H151V45H148Z" fill="white"/>
<path d="M148 36V33H151V36H148Z" fill="white"/>
<path d="M130 60V57H133V60H130Z" fill="white"/>
<path d="M126.52 39V36H129.52V39H126.52Z" fill="white"/>
<path d="M101.5 33V30H104.5V33H101.5Z" fill="white"/>
<path d="M80.5 25.5V22.5H83.5V25.5H80.5Z" fill="white"/>
<path d="M93 51V48H96V51H93Z" fill="white"/>
<path d="M80.5 60V57H83.5V60H80.5Z" fill="white"/>
<path d="M73.2 42V39H76.2V42H73.2Z" fill="white"/>
<path d="M89.5 13.5V10.5H92.5V13.5H89.5Z" fill="white"/>
<path d="M70 6L70 3H73V6H70Z" fill="white"/>
<path d="M110.6 13.5V10.5H113.6V13.5H110.6Z" fill="white"/>
<path d="M98.5 2.99999V0H101.5V2.99999H98.5Z" fill="white"/>
<path d="M113.6 42V39H116.6V42H113.6Z" fill="white"/>
<path d="M130 48V45H133V48H130Z" fill="white"/>
<path d="M154 42V39L157 39V42H154Z" fill="white"/>
<path d="M136 57V54H139V57H136Z" fill="white"/>
<path d="M136 42V39H139V42H136Z" fill="white"/>
<path d="M166 36V33L169 33V36H166Z" fill="white"/>
<path d="M142 54V51H145V54H142Z" fill="white"/>
<path d="M121 54V51H124V54H121Z" fill="white"/>
<path d="M142 39V36H145V39H142Z" fill="white"/>
<path d="M163 2.99999V0H166V2.99999H163Z" fill="white"/>
<path d="M151 24V21H154V24H151Z" fill="white"/>
<path d="M157 15V12H160V15H157Z" fill="white"/>
<path d="M157 8.99999V6H160V8.99999H157Z" fill="white"/>
<path d="M157 21V18H160V21H157Z" fill="white"/>
<path d="M157 2.99999V0H160V2.99999H157Z" fill="white"/>
<path d="M139 18V15H142V18H139Z" fill="white"/>
<path d="M145 30V27H148V30H145Z" fill="white"/>
<path d="M160 30V27H163V30H160Z" fill="white"/>
<path d="M160 12V8.99999L163 9.00001V12H160Z" fill="white"/>
<path d="M172 30V27H175V30H172Z" fill="white"/>
<path d="M172 6V3H175V6H172Z" fill="white"/>
<path d="M148 15V12H151V15H148Z" fill="white"/>
<path d="M148 6V3H151V6H148Z" fill="white"/>
<path d="M130 30V27H133V30H130Z" fill="white"/>
<path d="M130 8.99999V6H133V8.99999H130Z" fill="white"/>
<path d="M130 18V15H133V18H130Z" fill="white"/>
<path fill-rule="evenodd" clip-rule="evenodd" d="M172 111V114H175V117H178V120H184V117H187V120H190V114H187V111H190V102H187V99H190V96H187V93H190V84H187V81H190V72H187V69H190V66H187V63H190V54H187V51H190V42H187V39H190V36H187V33H190V24H187V21H190V12H187V8.99999H190V6H187V2.99999H190V0H187V2.99999L184 3V0H181V3L178 2.99999V0H175V3L178 2.99999V6H175V9.00001H172V12H175V15H178V18H175V21H172L172 24H175V27H178V30H175V33L178 33V36H175V39L172 39L172 42H175V45H178V48H175V51L172 51V54L175 54V57H178V60H175V63L178 63V66L175 66V69L172 69L172 72H175V75H178V78H175V81L172 81L172 84L175 84V87H178V90H175V93L178 93V96L175 96V99L172 99L172 102L175 102V105H178V108H175V111H172ZM178 108H181V111H178V108ZM178 105V102H181V105H178ZM178 93L181 93V90H178V93ZM178 78H181V81H178V78ZM178 75V72H181V75H178ZM178 63H181V60H178V63ZM178 48H181V51H178V48ZM178 45V42H181V45H178ZM178 33L181 33V30H178V33ZM178 18H181V21H178V18ZM178 15V12H181V15H178ZM187 12V18L184 18V12L187 12ZM184 27L187 27V33L184 33V27ZM184 27H181V24H184V27ZM187 42V48L184 48V42L187 42ZM184 57H187V63H184V57ZM184 57H181V54H184V57ZM187 72V78H184V72H187ZM184 87H187V93L184 93V87ZM184 87H181V84H184V87ZM187 102V108H184V102H187ZM184 117H181V114H184V117ZM181 6V9.00001H184V6H181ZM181 36V39H184V36H181ZM181 66V69H184V66H181ZM181 96V99H184V96H181Z" fill="white"/>
<path d="M154 12V9.00001L157 8.99999V12H154Z" fill="white"/>
<path d="M136 27V24H139V27H136Z" fill="white"/>
<path d="M136 12V9.00001H139V12H136Z" fill="white"/>
<path d="M166 27V24H169V27H166Z" fill="white"/>
<path d="M166 6V2.99999L169 3V6H166Z" fill="white"/>
<path d="M169 8.99999V6H172V9.00001L169 8.99999Z" fill="white"/>
<path d="M169 3V0H172L172 3H169Z" fill="white"/>
<path d="M163 111V108H166V111L163 111Z" fill="white"/>
<path d="M166 102V99L169 99V102H166Z" fill="white"/>
<path d="M166 105V108L169 108V105H166Z" fill="white"/>
<path d="M172 108V105H175V108H172Z" fill="white"/>
<path d="M163 84L166 84V78L169 78V75H172V72H169V75H166V78H163V84Z" fill="white"/>
<path d="M163 54H166V48H163V54Z" fill="white"/>
<path d="M169 48V51L172 51V48L175 48V45H172V48H169Z" fill="white"/>
<path d="M166 45V42H169V45H166Z" fill="white"/>
<path d="M163 39V36H166V39L163 39Z" fill="white"/>
<path d="M166 9.00001V12H169V15H166V18H163V24H166V18H169V15H172V12H169V8.99999L166 9.00001Z" fill="white"/>
<path d="M142 24V21H145V24H142Z" fill="white"/>
<path d="M121 24V21H124V24H121Z" fill="white"/>
<path d="M142 8.99999V6H145V8.99999H142Z" fill="white"/>
<path d="M121 6V3H124V6H121Z" fill="white"/>
<path d="M169 117V120H175V117H169Z" fill="white"/>
<path d="M169 57V63H172L172 60L175 60V57H169Z" fill="white"/>
</g>
</svg>
